<?xml version="1.0" encoding="utf-8"?>
<!-- Generator: Adobe Illustrator 18.1.1, SVG Export Plug-In . SVG Version: 6.00 Build 0)  -->
<svg version="1.1" id="圖層_1" xmlns="http://www.w3.org/2000/svg" xmlns:xlink="http://www.w3.org/1999/xlink" x="0px" y="0px"
	 viewBox="182.6 305.9 230 230" enable-background="new 182.6 305.9 230 230" xml:space="preserve">
<g>
	<defs>
		<path id="SVGID_1_" d="M412.6,464c0,2.7,0,5.5,0,8.2c0,2.3,0,4.6-0.1,7c-0.1,5.1-0.5,10.1-1.3,15.1c-0.8,5-2.4,9.9-4.8,14.4
			c-4.6,9.1-12,16.5-21.1,21.1c-4.5,2.3-9.3,3.9-14.4,4.7c-5,0.8-10,1.3-15.1,1.3c-2.3,0.1-4.6,0.1-7,0.1c-2.7,0-5.5,0-8.2,0h-86.1
			c-2.7,0-5.5,0-8.2,0c-2.3,0-4.6,0-7-0.1c-5.1-0.1-10.1-0.5-15.1-1.4c-5-0.9-9.9-2.4-14.4-4.7c-9.1-4.6-16.5-12-21.1-21.1
			c-2.3-4.5-3.9-9.4-4.8-14.4c-0.8-5-1.3-10-1.3-15.1c-0.1-2.3-0.1-4.6-0.1-7c0-2.7,0-5.5,0-8.2v-86.1c0-2.7,0-5.5,0-8.3
			c0-2.3,0-4.6,0.1-6.9c0.1-5.1,0.5-10.1,1.3-15.1c0.8-5,2.4-9.9,4.8-14.4c4.6-9.1,12-16.5,21.1-21.1c4.5-2.3,9.3-3.9,14.3-4.7
			c5-0.8,10-1.3,15.1-1.3c2.3-0.1,4.6-0.1,7-0.1c2.7,0,5.5,0,8.2,0h86.1c2.7,0,5.5,0,8.2,0c2.3,0,4.6,0,7,0.1
			c5.1,0.1,10.1,0.5,15.1,1.3c5,0.8,9.9,2.4,14.4,4.7c9.1,4.6,16.5,12,21.1,21.1c2.3,4.5,3.9,9.3,4.7,14.4c0.8,5,1.3,10,1.3,15.1
			c0.1,2.3,0.1,4.6,0.1,7c0,2.7,0,5.5,0,8.2L412.6,464L412.6,464z"/>
	</defs>
	<clipPath id="SVGID_2_">
		<use xlink:href="#SVGID_1_"  overflow="visible"/>
	</clipPath>
	<g clip-path="url(#SVGID_2_)" enable-background="new    ">
		<image overflow="visible" width="230" height="230" xlink:href="230x0w.png"  transform="matrix(1 0 0 1 182.6216 305.9478)">
		</image>
	</g>
</g>
</svg>
